<?xml version="1.0" standalone="no"?>
<!DOCTYPE svg PUBLIC "-//W3C//DTD SVG 20010904//EN"
 "http://www.w3.org/TR/2001/REC-SVG-20010904/DTD/svg10.dtd">
<svg version="1.0" xmlns="http://www.w3.org/2000/svg"
 width="700.000000pt" height="700.000000pt" viewBox="0 0 700.000000 700.000000"
 preserveAspectRatio="xMidYMid meet">
<metadata>
Created by potrace 1.11, written by Peter Selinger 2001-2013
</metadata>
<g transform="translate(0.000000,700.000000) scale(0.100000,-0.100000)"
fill="#000000" stroke="none">
<path d="M3448 6995 c-2 -1 -49 -5 -106 -9 -56 -4 -108 -9 -115 -11 -6 -2 -37
-6 -67 -9 -30 -3 -66 -8 -80 -10 -14 -3 -54 -10 -90 -16 -36 -7 -76 -14 -89
-17 -67 -12 -338 -86 -426 -116 -190 -65 -487 -196 -595 -263 -19 -12 -80 -48
-135 -80 -124 -73 -319 -212 -445 -317 -132 -110 -387 -370 -493 -502 -327
-407 -555 -867 -682 -1375 -19 -74 -37 -157 -40 -185 -4 -27 -8 -61 -11 -75
-25 -148 -25 -597 1 -800 5 -45 16 -117 19 -138 2 -10 6 -38 10 -63 29 -202
138 -569 237 -799 45 -106 195 -396 253 -488 58 -93 220 -323 261 -371 12 -14
53 -62 90 -106 138 -163 363 -373 555 -521 72 -56 306 -214 316 -214 3 0 18
-8 32 -19 64 -45 272 -149 430 -217 191 -81 518 -184 642 -200 25 -3 48 -8 51
-10 5 -3 107 -20 179 -31 179 -25 302 -31 580 -28 168 1 319 5 335 8 17 3 55
8 85 12 47 5 185 26 255 40 430 82 863 257 1216 491 154 103 213 197 213 339
-2 246 -182 417 -440 416 -90 0 -145 -19 -264 -89 -194 -114 -457 -227 -665
-287 -101 -29 -295 -71 -370 -80 -27 -4 -61 -8 -75 -11 -107 -17 -397 -23
-555 -11 -337 27 -696 125 -1013 278 -598 289 -1074 802 -1316 1419 -76 191
-115 327 -145 500 -36 208 -42 274 -43 460 -1 136 7 287 17 334 2 12 7 44 10
71 3 28 10 68 15 90 5 22 12 56 15 75 17 98 95 363 131 445 7 17 27 64 44 105
46 111 130 266 213 393 341 522 867 924 1470 1121 110 36 285 81 352 91 22 3
46 8 53 11 8 2 37 7 65 10 29 3 58 7 64 9 59 19 463 27 627 12 324 -29 599
-114 1016 -314 89 -42 170 -88 190 -108 60 -57 115 -80 200 -82 66 -1 83 2
140 30 83 41 140 94 178 165 70 132 55 302 -36 401 -67 73 -474 294 -727 394
-119 48 -339 119 -405 132 -8 2 -33 8 -55 13 -44 12 -222 48 -270 56 -16 2
-50 8 -75 11 -25 4 -53 9 -62 10 -9 2 -48 7 -85 11 -37 4 -81 8 -98 10 -36 5
-482 13 -487 9z"/>
<path d="M6141 5858 c-109 -19 -205 -107 -255 -236 -21 -52 -24 -76 -22 -180
1 -85 5 -124 15 -136 7 -9 23 -34 35 -56 27 -50 93 -121 143 -154 75 -50 144
-66 285 -66 l129 0 58 39 c85 58 160 129 184 175 17 35 21 62 24 175 l2 134
-47 80 c-26 44 -67 97 -92 119 -53 47 -140 93 -196 104 -51 10 -211 11 -263 2z"/>
<path d="M4127 5808 c-35 -13 -143 -83 -189 -124 -50 -44 -94 -113 -112 -175
-28 -99 -22 -238 14 -289 10 -14 20 -35 24 -46 18 -57 146 -146 249 -174 62
-17 205 -8 270 17 54 20 150 104 191 168 44 69 63 141 60 230 -3 98 -10 118
-65 175 -24 25 -67 73 -95 106 -73 85 -136 117 -239 120 -44 1 -93 -2 -108 -8z"/>
<path d="M3006 5768 c-22 -5 -47 -15 -55 -22 -9 -7 -38 -26 -66 -42 -58 -33
-137 -110 -162 -157 -40 -76 -51 -124 -50 -224 2 -97 2 -99 46 -173 110 -185
223 -252 416 -245 151 5 199 30 279 150 60 90 79 156 80 280 1 131 -3 150 -46
194 -18 18 -47 56 -64 84 -35 60 -109 120 -174 142 -55 18 -151 24 -204 13z"/>
<path d="M2238 5174 c-3 -2 -31 -7 -64 -10 -32 -3 -69 -12 -81 -20 -35 -22
-88 -79 -135 -142 -23 -31 -44 -59 -47 -62 -12 -11 -130 -159 -183 -230 -60
-81 -70 -100 -128 -260 -21 -58 -47 -126 -58 -150 -54 -121 -98 -284 -118
-435 -3 -27 -8 -59 -11 -70 -2 -11 -5 -117 -7 -235 -4 -257 13 -414 70 -633
77 -302 248 -634 442 -859 90 -105 249 -265 337 -339 22 -19 42 -37 45 -40 17
-19 192 -156 237 -185 67 -42 249 -135 323 -164 118 -47 400 -121 512 -134 24
-3 75 -10 113 -15 92 -11 585 -12 655 0 30 5 73 11 95 14 22 4 58 11 80 17 22
5 47 11 55 13 228 44 571 202 818 376 257 182 377 277 427 341 27 35 52 65 55
68 15 14 159 199 175 224 17 28 18 65 17 640 0 599 -1 612 -21 651 -12 21 -21
53 -21 70 0 37 -62 135 -119 188 -81 75 -167 103 -302 101 -69 -1 -114 -17
-184 -65 -90 -61 -134 -116 -164 -205 -19 -59 -20 -84 -21 -595 l0 -534 -58
-55 c-210 -201 -461 -344 -728 -414 -167 -44 -231 -51 -459 -50 -164 1 -207 4
-315 27 -259 54 -492 147 -630 250 -123 92 -130 98 -226 194 -138 139 -278
335 -298 418 -4 17 -15 38 -24 48 -12 14 -16 42 -17 131 -1 94 -5 118 -21 142
-22 32 -39 80 -48 134 -3 19 -8 46 -11 60 -3 14 -6 117 -7 230 l0 205 32 95
c18 52 39 111 47 130 98 228 183 363 326 520 32 36 68 83 79 104 27 53 28 143
3 226 -18 56 -30 74 -97 141 -96 94 -178 138 -272 144 -35 2 -66 2 -68 -1z"/>
<path d="M4067 3880 c-72 -18 -172 -84 -230 -152 -54 -62 -75 -126 -73 -219 2
-73 4 -81 50 -157 77 -127 168 -208 260 -233 44 -12 153 -14 204 -5 124 23
283 187 307 317 6 31 9 116 6 165 -2 30 -53 103 -117 168 -111 112 -258 154
-407 116z"/>
<path d="M6120 2009 c-41 -3 -87 -11 -103 -17 -74 -30 -133 -101 -173 -208
-22 -58 -25 -83 -25 -184 l1 -116 37 -65 c54 -91 130 -164 210 -202 65 -30 75
-32 213 -35 l145 -4 61 42 c84 56 157 128 183 179 19 36 23 62 25 173 l2 131
-33 55 c-18 30 -33 57 -33 61 0 15 -80 92 -127 124 -95 64 -195 81 -383 66z"/>
</g>
</svg>
